<?xml version="1.0" encoding="utf-8"?>
<!-- Generator: Adobe Illustrator 24.1.1, SVG Export Plug-In . SVG Version: 6.00 Build 0)  -->
<svg version="1.1" id="b44bed02-f359-4342-b87b-f4a031822321"
	 xmlns="http://www.w3.org/2000/svg" xmlns:xlink="http://www.w3.org/1999/xlink" x="0px" y="0px" width="1090.3px" height="674px"
	 viewBox="0 0 1090.3 674" style="enable-background:new 0 0 1090.3 674;" xml:space="preserve">
<style type="text/css">
	.st0{fill:#F2F2F2;}
	.st1{fill:#FFFFFF;}
	.st2{fill:#3F3D56;}
</style>
<path class="st0" d="M942.6,422.5c-23,22.4-25.8,56.8-25.8,56.8s34.5-1.9,57.5-24.3c23-22.4,25.8-56.8,25.8-56.8
	S965.6,400.1,942.6,422.5z"/>
<path class="st0" d="M911.3,674l-1.4-1.4c0.2-0.2,21.9-21.4,30.1-61c7.6-36.6,5-96.8-50.5-176c-42.6-60.7-59.8-113.8-51.2-157.7
	c7.6-38.6,33.2-55.5,33.5-55.7l1.1,1.7c-0.3,0.2-25.3,16.7-32.6,54.5c-8.5,43.4,8.7,95.9,50.9,156.1c24.7,35.2,41.2,69.7,48.9,102.5
	c6.2,26.3,6.8,51.6,1.9,75.1C933.5,652.3,911.5,673.8,911.3,674z"/>
<ellipse class="st0" cx="901.3" cy="241.1" rx="180" ry="30.9"/>
<path class="st0" d="M867.8,263c-124.8,0-222.5-17.1-222.5-39s97.7-39,222.5-39s222.5,17.1,222.5,39S992.6,263,867.8,263z
	 M867.8,187c-119.5,0-220.5,16.9-220.5,37s101,37,220.5,37s220.5-16.9,220.5-37S987.3,187,867.8,187z"/>
<path class="st0" d="M243.2,673l-1.4-1.4c0.3-0.3,27.6-27,38-76.9c9.6-46.1,6.4-122-63.6-221.8c-29.2-41.7-49.2-81.1-59.3-117.1
	c-8.2-29.4-10-56.7-5.2-81.3c9.5-48.5,41.7-69.7,42.1-69.9l1.1,1.7c-0.3,0.2-31.9,21.1-41.2,68.7c-10.7,54.6,10.9,120.8,64.1,196.7
	c31.1,44.3,51.8,87.7,61.5,129c7.8,33.1,8.6,64.8,2.4,94.5C271.2,645.7,243.5,672.7,243.2,673z"/>
<circle class="st0" cx="176.1" cy="138.8" r="77.4"/>
<path class="st0" d="M194.4,211c-58.3,0-105.5-47.2-105.5-105.5S136.1,0,194.4,0s105.5,47.2,105.5,105.5c0,0,0,0,0,0
	C299.8,163.7,252.6,210.9,194.4,211z M194.4,2C137.2,2,90.9,48.3,90.9,105.5S137.2,209,194.4,209c57.1,0,103.5-46.3,103.5-103.5
	c0,0,0,0,0,0C297.8,48.4,251.5,2.1,194.4,2z"/>
<circle class="st0" cx="253.5" cy="314.4" r="64.2"/>
<circle class="st0" cx="220.8" cy="537.2" r="64.2"/>
<path class="st0" d="M920.9,673.9H703.2c0,0-4.4-64.7,21.7-65.4c26.1-0.7,23.2,28.7,55.9-11.8s72.4-38.2,77.6-14.3
	c5.1,23.9-9.9,43,17.6,37.1C903.6,613.6,943.3,629,920.9,673.9z"/>
<path class="st1" d="M808.4,673.9l-0.7,0c1.7-42.6,10.6-70,17.8-85.4c7.8-16.8,15.3-23.6,15.4-23.6l0.5,0.5
	c-0.1,0.1-7.5,6.8-15.2,23.5C818.9,604.2,810.1,631.4,808.4,673.9z"/>
<path class="st1" d="M887.1,674l-0.7-0.2c5.5-18.1,15.3-34.5,28.7-47.8l0.5,0.5C902.4,639.7,892.6,656,887.1,674z"/>
<path class="st1" d="M737.5,673.9l-0.7-0.1c2.4-16-0.1-32.3-7.2-46.8c-2.9-6.1-6.7-11.7-11.4-16.6l0.5-0.5c4.7,5,8.6,10.6,11.5,16.8
	C737.4,641.3,739.9,657.8,737.5,673.9z"/>
<path class="st2" d="M485,631.9"/>
</svg>
